<?xml version="1.0" standalone="no"?>
<!DOCTYPE svg PUBLIC "-//W3C//DTD SVG 20010904//EN"
 "http://www.w3.org/TR/2001/REC-SVG-20010904/DTD/svg10.dtd">
<svg version="1.0" xmlns="http://www.w3.org/2000/svg"
 width="1024.000000pt" height="1024.000000pt" viewBox="0 0 1024.000000 1024.000000"
 preserveAspectRatio="xMidYMid meet">
<metadata>
Created by potrace 1.14, written by Peter Selinger 2001-2017
</metadata>
<g transform="translate(0.000000,1024.000000) scale(0.100000,-0.100000)"
fill="#000000" stroke="none">
<path d="M0 5120 l0 -5120 5120 0 5120 0 0 5120 0 5120 -5120 0 -5120 0 0
-5120z m5311 2547 c59 -30 213 -154 754 -610 l680 -573 5 286 c5 306 7 316 62
367 40 38 73 43 256 43 206 0 242 -10 283 -76 l24 -39 3 -557 3 -558 338 -284
c236 -199 343 -295 354 -319 40 -84 8 -190 -68 -227 -49 -24 -128 -26 -167 -6
-16 8 -125 96 -243 195 l-214 181 -3 -1292 -3 -1293 -27 -78 c-63 -176 -166
-272 -344 -317 -76 -20 -117 -20 -1879 -20 -1762 0 -1803 0 -1879 20 -183 46
-291 148 -352 330 -18 52 -19 121 -24 1351 l-5 1297 -215 -180 c-118 -99 -227
-186 -242 -194 -34 -18 -119 -18 -161 0 -47 19 -85 68 -92 119 -11 69 8 116
67 173 29 28 602 512 1273 1075 671 562 1252 1049 1290 1082 141 118 216 149
356 144 88 -2 102 -6 170 -40z"/>
<path d="M5093 7343 c-11 -2 -438 -354 -947 -781 l-926 -776 2 -1391 3 -1391
26 -49 c18 -35 39 -59 74 -80 l48 -30 1730 -3 c1187 -1 1741 1 1768 8 50 14
107 64 130 115 18 38 19 107 18 1435 l0 1395 -895 750 c-492 413 -909 760
-927 772 -35 24 -71 33 -104 26z m140 -688 c21 -11 328 -263 682 -560 l645
-540 0 -1001 c0 -863 -2 -1007 -15 -1051 -20 -68 -88 -143 -157 -174 l-53 -24
-1210 0 -1210 0 -56 26 c-72 34 -123 88 -149 156 -20 53 -20 74 -20 1061 l0
1008 650 544 c357 300 667 553 687 563 50 23 153 19 206 -8z"/>
<path d="M5066 6239 c-10 -6 -245 -202 -522 -436 l-504 -424 2 -835 3 -836 33
-29 33 -29 1019 2 1020 3 27 28 28 27 3 835 2 834 -492 413 c-271 227 -506
423 -522 436 -31 24 -97 30 -130 11z m145 -652 c24 -12 153 -114 287 -226
l243 -204 -3 -453 -3 -452 -30 -43 c-18 -26 -50 -53 -80 -68 l-49 -26 -429 -3
c-364 -2 -437 0 -482 13 -64 18 -108 53 -138 109 -22 40 -22 46 -22 481 l0
440 240 202 c132 111 262 213 289 227 62 32 118 33 177 3z"/>
<path d="M5084 5183 c-18 -10 -77 -56 -133 -103 l-100 -85 -1 -257 c0 -254 0
-257 22 -272 19 -13 61 -16 255 -16 220 0 234 1 253 20 19 19 20 33 20 269 l0
250 -102 87 c-57 48 -110 93 -118 100 -27 23 -64 25 -96 7z"/>
</g>
</svg>
